<?xml version="1.0" encoding="UTF-8" standalone="no"?>
<svg
   xmlns:dc="http://purl.org/dc/elements/1.1/"
   xmlns:cc="http://creativecommons.org/ns#"
   xmlns:rdf="http://www.w3.org/1999/02/22-rdf-syntax-ns#"
   xmlns:svg="http://www.w3.org/2000/svg"
   xmlns="http://www.w3.org/2000/svg"
   xmlns:sodipodi="http://sodipodi.sourceforge.net/DTD/sodipodi-0.dtd"
   xmlns:inkscape="http://www.inkscape.org/namespaces/inkscape"
   version="1.1"
   id="Layer_1"
   x="0px"
   y="0px"
   width="201.757px"
   height="143.867px"
   viewBox="0 0 201.757 143.867"
   enable-background="new 0 0 201.757 143.867"
   xml:space="preserve"
   sodipodi:docname="logoCiecoBlc.svg"
   inkscape:version="1.0.1 (c497b03c, 2020-09-10)"
   inkscape:export-filename="/Users/emmanuelchateau/image.png"
   inkscape:export-xdpi="286"
   inkscape:export-ydpi="286"><metadata
   id="metadata72"><rdf:RDF><cc:Work
       rdf:about=""><dc:format>image/svg+xml</dc:format><dc:type
         rdf:resource="http://purl.org/dc/dcmitype/StillImage" /><dc:title /></cc:Work></rdf:RDF></metadata><defs
   id="defs70" /><sodipodi:namedview
   pagecolor="#ffffff"
   bordercolor="#666666"
   borderopacity="1"
   objecttolerance="10"
   gridtolerance="10"
   guidetolerance="10"
   inkscape:pageopacity="0"
   inkscape:pageshadow="2"
   inkscape:window-width="939"
   inkscape:window-height="863"
   id="namedview68"
   showgrid="false"
   inkscape:zoom="5.1088851"
   inkscape:cx="63.786261"
   inkscape:cy="115.77868"
   inkscape:window-x="0"
   inkscape:window-y="25"
   inkscape:window-maximized="0"
   inkscape:current-layer="g65"
   inkscape:document-rotation="0" />
<g
   id="g65">
	<path
   fill="#231F20"
   d="M11.556,48.216c0,2.06,0.371,3.998,1.114,5.817c0.742,1.819,1.759,3.412,3.052,4.772   c1.289,1.366,2.821,2.442,4.593,3.229c1.771,0.789,3.687,1.186,5.744,1.186c2.725,0,5.19-0.657,7.393-1.973   c2.201-1.316,3.947-3.031,5.242-5.134l8.685,7.107c-2.396,3.352-5.447,6.028-9.153,8.039c-3.708,2.015-7.767,3.018-12.167,3.018   c-3.59,0-6.966-0.684-10.124-2.048c-3.16-1.368-5.918-3.23-8.289-5.598c-2.368-2.371-4.234-5.134-5.599-8.288   C0.683,55.179,0,51.808,0,48.216c0-3.586,0.683-6.964,2.046-10.118c1.365-3.16,3.231-5.922,5.599-8.288   c2.371-2.371,5.129-4.24,8.289-5.602c3.158-1.366,6.534-2.044,10.124-2.044c4.4,0,8.458,1.005,12.167,3.014   c3.706,2.009,6.757,4.692,9.153,8.037l-8.685,7.11c-1.295-2.106-3.042-3.818-5.242-5.134c-2.202-1.316-4.667-1.976-7.393-1.976   c-2.057,0-3.973,0.398-5.744,1.186c-1.772,0.79-3.304,1.863-4.593,3.231c-1.293,1.365-2.311,2.958-3.052,4.772   C11.926,44.228,11.556,46.161,11.556,48.216z"
   id="path51"
   style="fill:#f9f9f9"
   inkscape:export-xdpi="810.48566"
   inkscape:export-ydpi="810.48566" />
	<path
   fill="#231F20"
   d="M56.479,73.699V62.357h9.043V34.08h-9.043V22.737h29.644V34.08H77.08v28.277h9.043v11.342H56.479z"
   id="path53"
   style="fill:#f9f9f9" />
	<path
   fill="#231F20"
   d="M111.017,42.69h15.791v11.057h-15.791v8.61h20.099v11.342H99.534V22.737h31.582V34.08h-20.099V42.69z"
   id="path55"
   style="fill:#f9f9f9" />
	<path
   fill="#A91F23"
   d="M51.774,142.491l23.76-50.965h9.76l-23.761,50.965H51.774z"
   id="path57" />
	<path
   fill="#A91F23"
   d="M113.342,11.665L118.78,0h9.763l-5.396,11.575L113.342,11.665z"
   id="path59" />
	<path
   fill="#231F20"
   d="M105.327,117.012c0,2.055,0.367,3.994,1.112,5.813c0.741,1.817,1.757,3.404,3.05,4.772   c1.292,1.364,2.823,2.44,4.594,3.23c1.771,0.787,3.684,1.186,5.743,1.186c2.729,0,5.192-0.659,7.393-1.976   c2.199-1.316,3.949-3.024,5.239-5.134l8.688,7.109c-2.394,3.35-5.445,6.028-9.154,8.037c-3.708,2.013-7.762,3.019-12.165,3.019   c-3.59,0-6.962-0.684-10.12-2.049c-3.159-1.361-5.922-3.226-8.291-5.596c-2.37-2.371-4.234-5.135-5.601-8.296   c-1.363-3.155-2.045-6.529-2.045-10.116c0-3.593,0.682-6.967,2.045-10.128c1.367-3.155,3.231-5.919,5.601-8.29   c2.369-2.364,5.132-4.234,8.291-5.596c3.158-1.365,6.53-2.043,10.12-2.043c4.403,0,8.457,1.004,12.165,3.013   c3.709,2.009,6.761,4.693,9.154,8.04l-8.688,7.106c-1.29-2.104-3.04-3.817-5.239-5.134c-2.2-1.316-4.664-1.973-7.393-1.973   c-2.06,0-3.973,0.389-5.743,1.186c-1.771,0.787-3.302,1.863-4.594,3.228c-1.293,1.362-2.309,2.955-3.05,4.772   C105.694,113.012,105.327,114.951,105.327,117.012z"
   id="path61"
   style="fill:#f9f9f9" />
	<path
   fill="#231F20"
   d="M174.789,143.068c-3.59,0-6.966-0.684-10.122-2.049c-3.158-1.361-5.922-3.226-8.289-5.596   c-2.37-2.371-4.238-5.135-5.603-8.296c-1.363-3.155-2.046-6.529-2.046-10.116c0-3.593,0.683-6.967,2.046-10.128   c1.364-3.155,3.232-5.919,5.603-8.29c2.367-2.364,5.131-4.234,8.289-5.596c3.156-1.365,6.532-2.043,10.122-2.043   c3.588,0,6.963,0.678,10.121,2.043c3.156,1.361,5.921,3.231,8.291,5.596c2.366,2.371,4.233,5.135,5.597,8.29   c1.365,3.161,2.049,6.535,2.049,10.128c0,3.587-0.684,6.961-2.049,10.116c-1.363,3.161-3.23,5.925-5.597,8.296   c-2.37,2.37-5.135,4.234-8.291,5.596C181.751,142.385,178.376,143.068,174.789,143.068z M174.789,132.013   c2.057,0,3.97-0.398,5.742-1.186c1.769-0.79,3.301-1.866,4.595-3.23c1.288-1.368,2.309-2.955,3.05-4.772   c0.74-1.818,1.111-3.758,1.111-5.813c0-2.061-0.371-4-1.111-5.818c-0.741-1.817-1.762-3.41-3.05-4.772   c-1.294-1.364-2.826-2.44-4.595-3.228c-1.772-0.797-3.686-1.186-5.742-1.186c-2.058,0-3.973,0.389-5.74,1.186   c-1.775,0.787-3.306,1.863-4.598,3.228c-1.292,1.362-2.309,2.955-3.054,4.772c-0.74,1.818-1.109,3.758-1.109,5.818   c0,2.055,0.369,3.994,1.109,5.813c0.745,1.817,1.762,3.404,3.054,4.772c1.292,1.364,2.822,2.44,4.598,3.23   C170.816,131.614,172.731,132.013,174.789,132.013z"
   id="path63"
   style="fill:#f9f9f9" />
</g>
</svg>
